<svg xmlns="http://www.w3.org/2000/svg" version="1.0" preserveAspectRatio="xMidYMid meet" viewBox="603.55 31 792.95 1065">

<g transform="translate(0.000000,1125.000000) scale(0.100000,-0.100000)" fill="#000000" stroke="none">
<path d="M12950 10930 c0 -5 -16 -10 -35 -10 -56 0 -185 -29 -241 -55 -85 -38 -202 -196 -429 -580 -65 -110 -122 -202 -126 -205 -5 -3 -201 -7 -436 -9 l-427 -3 -174 -120 -173 -120 -132 129 c-92 90 -149 137 -187 156 -68 33 -170 50 -415 72 -232 21 -391 17 -455 -12 -66 -29 -182 -127 -378 -316 -95 -92 -184 -174 -197 -183 -23 -15 -28 -13 -127 47 -186 113 -276 141 -453 142 -192 1 -267 -32 -415 -182 -119 -120 -221 -251 -255 -327 -26 -57 -96 -125 -183 -178 -93 -56 -124 -61 -267 -46 -146 15 -233 9 -352 -26 -202 -58 -361 -182 -498 -389 -59 -89 -80 -130 -183 -375 -38 -91 -122 -284 -187 -430 -145 -327 -160 -365 -176 -465 -18 -103 -18 -1018 0 -1283 28 -435 145 -1167 251 -1577 96 -369 165 -591 204 -654 20 -33 40 -81 46 -108 13 -69 29 -111 103 -263 139 -286 349 -638 513 -861 82 -110 101 -155 119 -276 16 -115 41 -434 55 -723 5 -113 12 -243 15 -290 2 -47 7 -238 10 -425 7 -374 16 -489 46 -551 22 -46 119 -144 142 -144 21 0 54 44 67 89 20 69 39 247 45 416 3 94 8 222 10 285 3 63 5 300 6 525 2 523 13 653 56 669 9 4 36 -6 63 -24 57 -36 68 -37 167 -6 43 14 215 59 383 102 339 85 501 139 667 222 204 101 303 196 303 288 0 124 -53 132 -202 32 -178 -119 -515 -221 -783 -236 -339 -19 -572 30 -763 160 -80 55 -333 303 -429 420 -57 70 -244 383 -312 523 -22 44 -67 170 -99 280 -157 523 -158 530 -263 1060 -28 143 -59 297 -70 342 -10 46 -39 192 -64 325 -40 216 -77 376 -136 588 -44 161 -3 267 128 332 l68 33 242 3 c251 4 418 -7 478 -32 57 -24 122 -93 156 -164 39 -84 72 -132 175 -257 97 -119 220 -240 260 -256 18 -8 105 -14 224 -17 l195 -4 174 -180 c200 -206 349 -330 468 -390 45 -23 94 -53 109 -66 24 -23 25 -29 19 -81 -4 -30 -31 -141 -61 -245 -59 -206 -68 -281 -36 -309 25 -23 34 -21 64 11 31 32 43 59 52 123 4 27 22 69 42 100 44 68 81 141 124 247 39 94 78 149 103 139 26 -10 31 -87 17 -300 -18 -290 -1 -465 65 -697 54 -189 173 -448 347 -758 169 -302 201 -333 493 -480 203 -103 309 -135 725 -222 405 -84 403 -83 445 -155 56 -95 80 -272 90 -670 5 -224 7 -272 25 -705 12 -279 37 -672 46 -713 3 -15 8 -27 11 -27 9 0 112 60 202 118 l84 54 -7 121 c-3 67 -8 280 -12 472 -3 193 -8 361 -10 375 -9 56 -4 1077 6 1109 17 61 87 164 182 270 150 168 224 258 319 391 49 69 100 139 114 155 42 52 240 391 311 531 41 82 75 136 86 140 11 3 37 42 61 92 24 48 89 162 144 253 112 182 253 449 333 629 84 188 136 345 204 612 71 276 87 359 111 578 50 450 181 1096 255 1256 20 45 59 162 86 260 47 173 49 183 49 314 0 108 -5 153 -24 225 -56 217 -125 402 -331 890 -56 132 -108 256 -116 277 -14 33 -13 52 6 207 60 490 73 710 48 808 -23 92 -123 153 -275 169 -35 4 -63 11 -63 15 0 5 -58 9 -130 9 -80 0 -130 -4 -130 -10z m198 -196 c27 -18 29 -67 7 -140 -38 -124 -65 -383 -65 -619 l0 -120 61 -50 c156 -128 238 -246 293 -420 19 -61 60 -192 92 -291 36 -116 55 -190 51 -205 -4 -13 -27 -49 -52 -79 -25 -30 -53 -71 -61 -90 -8 -19 -38 -70 -66 -112 -104 -160 -77 -242 114 -340 66 -33 103 -59 111 -75 11 -25 -22 -199 -114 -598 -22 -93 -60 -264 -85 -380 -25 -115 -69 -305 -99 -420 -29 -116 -58 -246 -64 -288 -24 -175 -219 -859 -323 -1132 -37 -98 -162 -363 -314 -667 -112 -222 -119 -233 -323 -506 -241 -322 -346 -448 -493 -587 -290 -276 -524 -358 -1023 -359 -250 0 -357 14 -501 65 -174 61 -299 140 -386 245 -158 189 -408 690 -487 974 -78 282 -73 572 15 836 33 100 104 252 139 298 42 55 105 70 405 101 241 25 329 46 408 97 94 60 230 196 238 237 4 17 26 54 50 80 73 81 102 86 514 96 251 6 333 16 364 44 63 57 133 66 192 22 115 -83 223 -230 486 -661 189 -308 278 -440 299 -440 26 0 42 59 34 123 -4 29 -20 81 -35 117 -41 96 -53 138 -46 166 11 43 66 25 66 -22 0 -44 74 -70 114 -41 26 19 18 105 -17 178 -56 118 -199 309 -368 494 -238 261 -364 403 -386 436 l-24 36 51 107 c59 123 141 219 227 268 29 17 53 31 53 31 0 1 -9 72 -20 157 -42 327 -21 461 143 890 l44 115 184 11 c216 13 274 21 289 39 30 36 -59 99 -210 150 -57 19 -114 42 -126 50 -32 21 -49 58 -63 138 -7 38 -20 89 -30 115 -45 113 -87 539 -77 782 10 281 36 435 96 575 21 50 44 108 49 131 29 113 339 373 508 428 91 29 130 32 161 10z m344 -53 l33 -30 -2 -103 c-2 -175 -70 -534 -115 -606 -38 -62 -127 -94 -158 -57 -21 25 -10 368 21 625 12 105 23 141 52 167 29 26 43 31 94 32 34 1 50 -5 75 -28z m-3066 -744 c28 -7 70 -29 94 -48 62 -50 169 -186 220 -281 38 -71 44 -92 48 -158 5 -82 -25 -267 -98 -605 -21 -99 -48 -236 -60 -305 -11 -69 -34 -185 -51 -259 -47 -212 -63 -387 -114 -1231 -40 -655 -54 -794 -85 -833 -10 -12 -21 -19 -24 -16 -3 3 -11 64 -17 135 -22 263 -111 496 -219 576 -59 43 -308 45 -431 3 -99 -34 -176 -146 -191 -280 -13 -115 -35 -127 -63 -32 -32 104 -41 424 -51 1727 -7 870 0 1116 34 1213 39 110 178 277 293 354 70 46 113 52 399 52 188 1 280 -3 316 -12z m1456 -109 c86 -7 138 -15 138 -22 0 -6 9 -91 20 -189 21 -185 75 -422 145 -642 51 -162 59 -208 59 -340 0 -89 -6 -143 -23 -209 -23 -95 -89 -245 -139 -319 -52 -75 -78 -168 -127 -457 -47 -277 -98 -443 -196 -630 -108 -207 -240 -334 -287 -277 -6 6 -15 62 -21 124 -12 129 -67 308 -133 436 -77 148 -104 161 -294 144 -160 -14 -198 -4 -231 63 -20 39 -23 60 -23 165 0 319 66 664 262 1375 38 140 85 315 104 389 40 156 52 185 105 245 57 64 112 105 177 132 50 21 74 24 191 24 74 0 197 -5 273 -12z m-3069 -283 c82 -17 177 -66 217 -112 63 -71 79 -205 131 -1108 24 -420 23 -613 -3 -661 -22 -40 -42 -48 -223 -83 -182 -36 -273 -64 -303 -91 -39 -37 -24 -147 23 -168 72 -33 252 -22 382 22 101 35 119 38 132 22 28 -34 20 -531 -9 -587 -13 -24 -52 -33 -250 -59 -200 -26 -258 -47 -289 -108 -11 -22 -37 -107 -57 -189 -20 -81 -42 -159 -49 -172 -12 -24 -13 -24 -23 -5 -19 35 -31 135 -57 454 -64 794 -85 930 -215 1370 -78 264 -131 396 -242 599 l-101 185 68 130 c94 180 199 338 290 434 87 92 125 119 187 131 72 15 316 12 391 -4z m-1302 -706 c77 -26 150 -130 304 -436 111 -219 159 -330 175 -409 7 -33 29 -97 50 -144 53 -118 56 -141 30 -195 -47 -98 -144 -143 -330 -154 -69 -4 -135 -13 -147 -19 -57 -31 -82 -111 -45 -145 45 -41 195 -41 382 -2 130 27 152 20 186 -60 27 -65 43 -144 50 -246 l7 -95 -28 -22 c-15 -12 -35 -22 -45 -22 -9 0 -51 -9 -94 -20 -164 -42 -230 -131 -251 -340 -14 -140 -26 -190 -45 -190 -28 0 -103 62 -122 100 -9 19 -46 97 -82 172 -65 137 -142 276 -241 439 -29 47 -72 124 -95 170 -24 46 -88 163 -143 259 -56 96 -120 220 -144 274 -24 55 -48 105 -53 111 -42 51 -73 296 -85 687 0 4 60 72 134 152 l135 146 231 0 c146 0 245 -4 266 -11z m-881 -824 c6 -8 16 -46 21 -84 4 -39 24 -108 42 -153 47 -114 51 -133 30 -153 -47 -48 -228 48 -262 138 -16 41 -13 114 5 153 22 46 98 114 128 114 13 0 29 -7 36 -15z m-121 -656 c53 -23 148 -59 211 -81 154 -53 229 -91 285 -144 39 -38 46 -50 43 -76 -6 -63 -99 -90 -423 -122 -82 -8 -196 -18 -252 -22 l-103 -7 0 69 c1 102 17 296 29 340 14 54 44 84 83 84 17 0 74 -19 127 -41z m4628 -99 c96 -58 154 -359 94 -482 -30 -62 -93 -119 -182 -164 -92 -46 -127 -47 -176 -8 -148 119 -202 307 -130 449 27 55 104 132 158 161 47 24 160 64 184 64 11 0 34 -9 52 -20z m-1085 -476 c37 -19 55 -49 63 -107 5 -29 19 -64 38 -90 27 -36 32 -50 31 -102 -1 -120 -70 -265 -148 -309 -88 -51 -234 -58 -322 -16 -70 34 -79 56 -77 175 3 137 28 316 52 369 25 58 55 76 154 92 90 14 167 9 209 -12z m-1978 -119 c77 -37 134 -241 91 -325 -20 -39 -72 -77 -117 -85 -33 -6 -41 -3 -66 22 -36 36 -52 103 -52 221 0 98 18 148 60 169 33 17 45 16 84 -2z m1002 -191 c64 -42 170 -167 214 -254 41 -79 23 -203 -50 -355 -68 -143 -179 -218 -295 -201 -39 6 -58 17 -101 58 -107 101 -144 191 -144 347 0 113 23 279 46 326 23 50 48 67 122 86 100 26 161 24 208 -7z"/>
<path d="M10085 7658 c-60 -4 -164 -15 -230 -23 -102 -12 -123 -18 -138 -37 -22 -27 -16 -59 20 -107 76 -99 305 -107 490 -16 85 42 123 85 123 138 0 60 -25 65 -265 45z"/>
<path d="M10883 7902 c-34 -3 -43 -7 -43 -22 0 -40 124 -113 240 -140 32 -8 122 -14 218 -14 l163 -1 45 47 c46 49 54 72 29 82 -52 20 -541 56 -652 48z"/>
</g>
</svg>