<svg xmlns="http://www.w3.org/2000/svg" version="1.0" preserveAspectRatio="xMidYMid meet" viewBox="1504.45 65.1 833.53 2037.75">

<g transform="translate(0.000000,2160.000000) scale(0.100000,-0.100000)" fill="#000000" stroke="none">
<path d="M20075 20931 c-90 -23 -157 -51 -277 -119 -202 -114 -339 -237 -527 -469 -63 -78 -117 -141 -120 -139 -36 22 -294 112 -365 127 -228 49 -540 48 -688 -2 -185 -62 -387 -275 -513 -541 -60 -126 -140 -370 -161 -488 -19 -105 -21 -435 -5 -755 11 -224 11 -627 0 -738 -17 -182 -48 -200 -409 -232 -410 -38 -534 -83 -644 -239 -128 -179 -209 -436 -273 -861 -11 -78 -16 -187 -18 -375 -1 -219 -5 -290 -24 -410 -36 -233 -104 -595 -226 -1205 -128 -641 -223 -1140 -257 -1355 -19 -125 -22 -182 -22 -410 0 -241 4 -299 41 -645 23 -209 51 -475 63 -591 l21 -210 -21 -50 c-41 -93 -323 -789 -387 -954 -125 -321 -177 -506 -205 -730 -18 -146 -18 -1385 0 -1590 54 -612 163 -1096 469 -2070 58 -186 192 -547 251 -675 158 -345 312 -574 595 -884 233 -254 286 -334 313 -476 50 -265 100 -464 169 -680 98 -304 130 -500 129 -795 0 -295 -29 -463 -125 -739 -104 -299 -134 -404 -119 -430 16 -30 84 -57 248 -96 146 -36 154 -36 178 -20 35 23 80 125 148 333 111 341 186 675 186 824 0 155 -60 459 -192 978 -50 195 -124 490 -165 654 -46 186 -85 324 -104 363 -48 100 -135 224 -285 403 -432 519 -548 767 -798 1717 -229 869 -326 1390 -355 1893 -10 174 -6 575 9 905 25 543 39 603 305 1310 65 171 146 388 182 483 l64 172 -50 563 c-102 1125 -103 1219 -30 1797 58 463 177 1060 256 1293 38 112 75 150 201 209 127 60 283 113 380 129 119 20 210 -10 247 -81 42 -81 68 -337 110 -1085 44 -774 67 -925 149 -964 24 -11 40 -11 110 3 44 9 98 21 119 27 l37 10 0 127 c0 269 21 1564 30 1894 16 528 31 650 135 1078 126 518 166 750 168 970 1 155 -14 220 -68 310 -72 117 -104 352 -110 805 -6 484 29 799 126 1134 79 272 181 450 294 516 89 53 274 39 449 -33 213 -88 340 -223 387 -412 20 -80 18 -355 -5 -510 -29 -202 -80 -484 -150 -818 -85 -405 -90 -450 -83 -757 6 -249 71 -1180 125 -1775 39 -442 34 -633 -43 -1579 -52 -625 -73 -909 -81 -1072 -7 -143 -6 -147 14 -158 26 -14 186 -30 294 -31 64 0 78 3 82 18 17 54 77 350 85 422 34 285 51 808 66 2085 12 1036 31 1812 44 1862 23 87 320 187 591 200 74 3 145 10 158 14 29 11 29 51 0 167 -17 71 -28 94 -57 123 -33 33 -45 38 -134 54 -150 27 -235 9 -527 -112 -52 -22 -108 -43 -124 -47 l-29 -7 7 68 c4 37 33 201 66 363 106 533 115 629 125 1399 6 373 13 489 36 574 33 122 177 335 314 466 109 104 196 144 323 149 78 4 103 1 155 -18 178 -65 311 -224 366 -441 65 -254 50 -817 -34 -1316 -33 -193 -64 -327 -146 -633 l-69 -260 66 -131 c131 -262 160 -407 151 -759 -4 -136 -16 -316 -31 -455 -57 -509 -59 -665 -13 -875 56 -252 62 -320 62 -685 0 -354 -5 -433 -51 -765 -33 -234 -81 -464 -188 -905 -110 -454 -138 -589 -126 -621 21 -55 147 -70 280 -33 135 37 238 111 260 186 47 165 235 1522 305 2195 31 303 8 1091 -60 2073 -24 342 -44 531 -71 680 -39 209 -33 308 44 695 34 168 75 386 92 485 16 99 37 206 46 239 62 234 198 332 392 282 77 -20 121 -41 200 -101 103 -77 180 -185 294 -410 l101 -199 -32 -291 c-67 -618 -81 -774 -81 -915 -1 -167 10 -235 76 -471 131 -470 174 -828 174 -1437 0 -533 -36 -1144 -130 -2202 -54 -606 -64 -820 -50 -1017 16 -229 88 -647 166 -958 44 -176 157 -514 269 -805 180 -465 246 -699 201 -716 -10 -4 -64 20 -144 63 -162 89 -329 166 -562 260 -102 42 -203 84 -225 95 -134 67 -288 221 -710 708 -630 727 -764 858 -1016 989 -125 65 -262 108 -634 197 -462 111 -645 159 -905 236 -402 118 -540 165 -740 251 -237 101 -386 116 -544 57 -42 -16 -76 -40 -121 -84 -55 -54 -73 -83 -153 -243 -99 -199 -253 -578 -301 -740 -118 -398 -76 -562 230 -903 197 -221 571 -527 827 -677 173 -102 408 -193 745 -289 375 -107 566 -183 703 -280 82 -58 114 -97 114 -139 0 -38 -48 -106 -215 -305 -265 -316 -475 -716 -659 -1258 -147 -432 -202 -726 -213 -1132 -14 -547 83 -938 339 -1363 138 -228 389 -515 598 -682 308 -246 692 -429 1065 -510 222 -48 606 -80 1105 -90 294 -7 371 -16 401 -46 28 -28 24 -72 -21 -206 -68 -206 -205 -939 -294 -1578 -65 -465 -67 -534 -26 -775 26 -151 60 -289 105 -425 41 -123 54 -151 98 -212 45 -63 238 -188 367 -239 25 -10 48 -22 53 -28 5 -7 10 -6 18 4 14 21 4 124 -27 255 -177 758 -184 1047 -44 1900 123 756 301 1463 575 2280 310 929 465 1531 590 2300 101 620 145 1182 160 2040 4 187 11 362 16 388 11 59 12 247 1 247 -5 0 -16 26 -26 58 -10 31 -64 201 -121 377 -233 717 -333 1074 -389 1385 -94 525 -99 898 -26 2025 52 801 55 874 55 1430 0 434 -4 575 -17 717 -29 292 -71 542 -145 848 -102 429 -108 486 -97 970 18 780 9 1002 -51 1250 -74 302 -272 593 -541 796 -109 82 -166 108 -310 142 -145 34 -163 31 -294 -49 -194 -118 -221 -128 -260 -89 -25 25 -60 95 -110 220 -139 348 -399 714 -575 807 -78 41 -195 73 -265 72 -30 0 -86 -8 -125 -18z m-2709 -3774 c101 -26 177 -116 196 -231 19 -116 -2 -224 -166 -849 -51 -192 -85 -348 -135 -615 -21 -109 -42 -155 -68 -150 -9 2 -37 30 -63 63 -80 104 -97 107 -410 75 -107 -11 -196 -20 -198 -20 -2 0 -2 201 1 448 5 493 15 614 68 822 51 198 142 351 239 400 42 21 132 49 198 60 78 13 283 11 338 -3z m331 -4883 c232 -48 613 -178 613 -209 0 -21 -179 -242 -295 -364 -11 -11 -58 9 -295 130 -155 79 -290 152 -300 162 -19 17 -19 19 -3 60 45 113 140 237 182 237 12 0 56 -7 98 -16z m1353 -395 c369 -37 491 -73 684 -203 61 -42 124 -86 140 -99 l29 -24 -106 -339 c-133 -421 -167 -570 -137 -589 6 -3 10 -17 10 -29 0 -90 -360 -348 -553 -397 -124 -31 -431 73 -892 301 -253 125 -448 240 -571 335 -179 140 -362 387 -424 575 -27 79 -21 156 14 197 23 26 24 27 50 10 14 -10 33 -28 42 -42 20 -31 133 -102 235 -148 184 -84 365 -123 495 -107 208 26 327 109 626 438 72 78 135 142 141 142 6 0 104 -9 217 -21z m1346 -481 c56 -44 140 -155 340 -448 167 -246 391 -547 494 -663 45 -51 105 -105 151 -136 116 -77 360 -191 604 -282 419 -155 532 -215 676 -359 191 -190 229 -287 229 -590 0 -371 -41 -789 -131 -1340 -183 -1122 -554 -2466 -799 -2895 -111 -194 -129 -200 -530 -200 -400 1 -490 16 -1034 176 -531 157 -666 219 -862 401 -127 117 -253 256 -350 384 -576 764 -578 1415 -9 2968 110 299 331 880 343 902 5 10 70 -46 220 -190 314 -303 492 -451 652 -547 37 -21 138 -70 226 -108 87 -38 223 -98 301 -135 265 -122 426 -169 571 -164 l92 3 -126 175 c-167 231 -201 274 -270 344 -105 105 -221 166 -455 240 -102 31 -123 42 -199 102 -83 65 -669 647 -826 819 l-78 87 46 136 c56 164 74 249 86 403 12 143 29 181 113 247 92 71 170 183 261 372 105 221 126 260 156 293 32 33 69 35 108 5z"/>
</g>
</svg>