<?xml version="1.0" standalone="no"?>
<!DOCTYPE svg PUBLIC "-//W3C//DTD SVG 20010904//EN"
 "http://www.w3.org/TR/2001/REC-SVG-20010904/DTD/svg10.dtd">
<svg version="1.0" xmlns="http://www.w3.org/2000/svg"
 width="286.000000pt" height="440.000000pt" viewBox="0 0 286.000000 440.000000"
 preserveAspectRatio="xMidYMid meet">

<g transform="translate(0.000000,440.000000) scale(0.100000,-0.100000)"
fill="#000000" stroke="none">
<path d="M1413 4265 c-101 -27 -195 -89 -246 -161 -36 -51 -31 -51 -146 -9
-178 64 -313 13 -391 -150 -16 -33 -42 -110 -59 -170 -25 -93 -34 -114 -61
-135 -143 -115 -221 -216 -279 -360 -57 -143 -59 -196 -21 -458 14 -91 3 -174
-45 -342 -48 -169 -52 -217 -27 -316 40 -157 114 -326 333 -754 59 -115 115
-242 147 -335 l53 -150 -1 -151 c0 -83 -5 -177 -11 -210 -16 -88 -73 -279
-108 -359 l-30 -70 36 -3 c69 -6 79 2 111 86 16 42 33 97 37 122 7 49 63 276
93 380 l19 65 64 -3 c35 -2 98 -13 139 -24 l76 -20 39 23 39 24 -64 18 c-219
61 -259 78 -299 124 -52 61 -90 140 -161 336 -84 231 -145 371 -267 607 -57
113 -113 228 -123 257 l-19 52 39 35 c52 47 91 66 151 73 27 3 49 9 49 13 0 3
-10 16 -23 28 -28 27 -64 27 -137 2 -30 -10 -57 -17 -59 -15 -2 3 13 72 33
155 37 150 38 152 46 448 5 163 14 317 20 340 24 97 81 172 174 227 73 43 106
44 165 5 26 -16 87 -47 136 -70 199 -90 209 -98 225 -205 6 -38 25 -108 41
-155 47 -131 46 -121 12 -108 -26 10 -37 7 -82 -17 -29 -16 -67 -45 -85 -66
l-34 -36 -75 48 c-42 27 -111 63 -154 80 -144 58 -161 81 -174 235 -7 99 -22
148 -52 172 -22 18 -26 0 -33 -151 -6 -120 -5 -137 13 -178 26 -58 85 -108
211 -179 138 -78 155 -92 232 -206 38 -56 90 -126 115 -155 25 -29 45 -61 45
-71 0 -11 5 -40 12 -65 15 -62 98 -143 211 -207 47 -26 91 -54 97 -61 8 -10 3
-30 -23 -82 -119 -235 -159 -502 -102 -680 58 -184 207 -318 393 -354 64 -12
323 -8 371 7 22 7 23 5 17 -22 -4 -16 -9 -137 -13 -269 -5 -223 -4 -246 16
-324 11 -46 27 -94 36 -107 15 -23 101 -62 112 -50 4 3 -1 39 -10 79 -31 135
-38 202 -44 407 -7 251 2 321 56 429 47 92 157 277 344 573 232 369 249 415
209 576 -22 88 -138 347 -179 400 l-25 34 21 71 c11 40 28 117 36 172 9 55 32
171 51 258 51 238 50 248 -61 487 -34 74 -79 185 -99 247 -47 140 -76 181
-157 222 -59 29 -68 31 -178 30 -78 0 -139 -6 -186 -18 l-69 -18 -66 43 c-36
24 -91 50 -125 59 -73 19 -202 18 -272 0z m242 -109 c105 -33 104 -32 177
-252 36 -110 105 -291 153 -404 76 -178 88 -215 93 -278 4 -68 -12 -187 -28
-197 -3 -2 -12 11 -18 29 -18 48 -51 59 -171 54 -88 -3 -102 -6 -124 -26 l-25
-24 -7 79 c-12 158 -43 228 -177 408 -102 137 -216 311 -256 390 -34 66 -33
71 25 136 91 101 214 130 358 85z m632 -130 c37 -42 104 -181 216 -446 60
-141 61 -209 9 -405 -22 -82 -48 -180 -57 -217 -14 -54 -25 -74 -53 -99 -79
-69 -162 -84 -256 -45 -33 14 -36 18 -36 58 0 24 18 106 40 182 58 202 59 199
-57 476 -69 166 -173 465 -173 499 0 15 9 22 38 26 20 4 42 8 47 10 6 2 62 4
127 4 l116 1 39 -44z m-1243 -67 c96 -47 137 -87 212 -207 36 -59 91 -138 122
-175 l55 -68 -36 -30 c-53 -43 -61 -62 -38 -90 l18 -22 47 22 c29 15 55 21 71
17 54 -14 104 -162 105 -311 l0 -60 -43 47 c-42 46 -43 47 -84 37 -114 -25
-186 -66 -219 -124 -9 -17 -15 -9 -41 60 -17 44 -41 132 -54 194 -27 135 -45
161 -141 208 -35 17 -116 56 -180 87 -74 36 -127 68 -144 89 -25 29 -26 36
-20 97 11 118 87 234 171 260 51 16 127 4 199 -31z m493 -980 c44 -66 47 -74
46 -134 0 -42 -6 -73 -17 -90 -15 -23 -22 -25 -92 -25 -92 0 -136 18 -158 65
-51 107 28 255 135 255 37 0 41 -4 86 -71z m414 42 c8 -8 39 -146 39 -173 0
-35 -32 -88 -61 -103 -63 -33 -189 -5 -225 51 -14 21 -14 28 0 76 23 77 59
141 87 156 24 12 146 7 160 -7z m-813 -158 c25 -20 62 -64 83 -97 l38 -60 -47
-34 c-142 -103 -192 -89 -222 66 l-13 63 49 50 c26 27 52 49 58 49 5 0 29 -17
54 -37z m1167 -173 c33 -5 71 -18 85 -28 14 -10 56 -80 96 -158 39 -76 87
-170 107 -208 81 -151 48 -226 -351 -806 -247 -358 -258 -369 -384 -390 -60
-10 -84 -10 -147 3 -103 20 -186 53 -228 90 -45 40 -111 137 -140 207 -49 120
-17 296 103 566 l47 104 81 -6 c101 -7 193 -29 225 -52 55 -40 63 -63 69 -186
2 -64 8 -116 12 -116 3 0 19 13 34 29 l27 28 72 -22 72 -23 3 23 c4 33 -22 79
-64 111 -41 32 -40 33 59 59 80 21 99 43 66 76 -19 19 -29 21 -89 16 l-68 -6
-23 37 c-50 77 -107 101 -379 163 -296 67 -384 102 -424 171 -26 46 -41 116
-29 135 5 6 17 13 27 15 16 2 21 -7 32 -55 16 -68 34 -105 64 -132 19 -18 36
-20 134 -19 125 0 181 13 225 50 44 37 53 81 36 173 -17 86 -19 127 -7 135 5
3 28 -9 51 -26 26 -19 59 -32 86 -36 66 -7 165 16 231 53 54 31 67 34 144 34
47 1 112 -4 145 -9z m-910 -64 c27 -11 30 -18 41 -92 7 -43 15 -94 19 -111 l8
-33 -71 0 c-79 0 -103 13 -121 69 -42 127 21 211 124 167z m162 -67 c18 -53
16 -128 -3 -136 -27 -10 -44 25 -44 88 0 94 23 118 47 48z"/>
<path d="M2267 3110 c-41 -13 -55 -27 -89 -94 -33 -66 -41 -124 -19 -150 23
-28 39 -18 50 32 7 26 24 70 39 97 24 44 31 50 64 53 l36 3 7 -85 c8 -89 25
-124 43 -89 9 17 36 203 30 208 -9 7 -104 35 -117 34 -9 0 -29 -5 -44 -9z"/>
</g>
</svg>
