<svg xmlns="http://www.w3.org/2000/svg" version="1.0" preserveAspectRatio="xMidYMid meet" viewBox="0.5 0.57 593.5 304.04">

<g transform="translate(0.000000,305.000000) scale(0.100000,-0.100000)" fill="#000000" stroke="none">
<path d="M1975 3040 l-320 -7 -505 -91 c-567 -103 -562 -101 -609 -195 -30 -60 -42 -158 -28 -215 15 -58 2 -68 -108 -81 -102 -12 -315 -66 -331 -84 -26 -29 -69 -164 -69 -217 0 -71 48 -173 102 -217 89 -71 135 -80 583 -118 162 -14 340 -31 395 -39 55 -8 199 -17 320 -21 385 -11 545 -46 668 -147 26 -23 27 -27 45 -218 13 -129 24 -206 35 -227 23 -43 86 -95 185 -150 46 -26 101 -66 122 -89 39 -43 66 -111 55 -143 -6 -20 85 -143 132 -177 45 -33 114 -65 283 -132 l155 -60 150 -6 c83 -3 296 -15 475 -26 179 -11 422 -23 541 -26 l216 -7 197 -174 c131 -115 203 -172 214 -169 10 2 33 7 52 11 105 19 256 84 360 155 119 81 264 234 422 445 41 55 77 105 81 111 4 7 38 143 77 304 l70 292 -108 113 c-75 79 -170 162 -317 276 -230 178 -423 361 -471 447 -26 47 -38 57 -109 92 -85 43 -221 129 -522 332 -296 200 -483 283 -701 312 -59 8 -161 31 -227 50 -150 44 -299 73 -435 85 -149 14 -697 20 -1075 11z m-145 -98 c0 -11 -14 -86 -31 -168 -22 -104 -31 -180 -32 -251 l-1 -101 -96 -1 c-52 0 -120 -4 -152 -7 -78 -9 -151 10 -190 49 l-31 31 6 126 c9 169 25 241 58 257 54 26 228 66 319 73 155 12 150 12 150 -8z m512 -2 c153 -6 294 -10 314 -10 l36 0 -49 -54 c-54 -59 -97 -136 -168 -301 -26 -60 -52 -115 -59 -122 -28 -31 -139 -47 -316 -48 -96 0 -192 4 -212 8 l-38 8 0 73 c0 40 13 158 30 262 16 104 30 192 30 196 0 3 35 4 78 2 42 -2 202 -9 354 -14z m648 -5 c52 -8 118 -20 147 -26 l52 -10 -14 -47 c-14 -46 -9 -61 20 -62 6 0 -6 -15 -26 -34 -22 -21 -44 -57 -57 -94 -26 -70 -39 -77 -154 -87 -124 -10 -270 -63 -402 -146 -33 -21 -62 -36 -64 -34 -6 6 115 328 139 370 39 66 70 103 112 132 49 35 117 63 137 58 8 -2 58 -11 110 -20z m-1713 -152 c-4 -49 -9 -145 -13 -215 -7 -127 -7 -127 -33 -132 -208 -43 -424 -52 -526 -22 -61 18 -116 52 -147 90 -36 43 -18 150 36 221 32 41 138 93 229 111 72 14 260 30 391 33 l69 1 -6 -87z m2249 51 c249 -39 374 -67 480 -109 70 -28 204 -101 204 -112 0 -9 -70 7 -255 59 -223 64 -300 68 -435 26 -91 -29 -299 -73 -306 -65 -8 8 67 237 77 237 4 0 111 -16 235 -36z m271 -272 c29 -37 59 -76 67 -87 31 -43 31 3 0 112 -6 20 7 18 182 -43 396 -136 595 -223 756 -331 137 -91 208 -154 234 -205 59 -116 71 -265 30 -355 -65 -139 -160 -243 -271 -297 -131 -63 -215 -70 -455 -37 -483 65 -706 149 -873 325 -59 62 -130 163 -119 170 4 2 67 27 139 56 147 57 216 98 250 149 13 19 22 36 20 37 -2 2 -32 -12 -68 -30 -35 -19 -88 -44 -116 -55 -61 -24 -242 -66 -325 -76 l-58 -7 0 63 -1 64 -42 -45 c-53 -57 -106 -100 -123 -100 -10 0 -10 7 2 35 15 37 19 85 6 85 -4 0 -59 -52 -122 -116 -123 -124 -172 -159 -235 -169 -22 -4 -98 -21 -170 -37 -162 -38 -249 -40 -322 -8 -48 20 -123 87 -123 109 0 4 22 6 48 3 58 -5 108 16 203 88 55 41 68 57 78 93 15 52 4 105 -34 161 -31 45 -31 50 -2 63 12 6 67 44 122 85 99 73 182 126 187 117 2 -2 16 -29 31 -60 15 -31 41 -69 57 -84 l30 -29 0 107 c0 123 11 136 55 66 35 -54 50 -46 50 27 l0 58 420 82 c231 45 425 82 430 83 6 0 33 -30 62 -67z m-3187 -220 c91 -27 181 -53 200 -57 62 -12 70 -16 71 -38 1 -20 2 -19 12 6 8 19 22 30 47 37 75 20 148 31 250 35 58 3 131 8 163 10 l58 5 -6 -188 c-6 -158 -4 -194 9 -231 9 -24 16 -46 16 -49 0 -10 -397 7 -455 20 -58 13 -60 14 -63 48 -2 19 -9 70 -17 114 -8 43 -16 99 -17 125 -1 42 -2 41 -8 -19 -4 -36 -8 -107 -9 -159 l-1 -94 -172 6 c-249 9 -469 43 -537 83 -77 45 -125 191 -89 269 13 29 121 100 182 121 77 25 183 13 366 -44z m1345 -47 c165 -14 311 -29 325 -32 23 -5 21 -7 -25 -29 -254 -118 -269 -128 -317 -203 -22 -36 -28 -57 -28 -101 0 -43 -5 -61 -20 -78 -25 -26 -38 -27 -225 -4 l-139 17 -8 35 c-12 56 4 207 39 363 l15 68 41 -6 c23 -3 177 -16 342 -30z m-452 -120 c-1 -57 -9 -112 -21 -150 l-19 -60 -13 30 c-17 39 -17 185 0 255 17 74 20 78 39 44 12 -21 16 -52 14 -119z m734 -91 c25 -7 93 -104 93 -134 0 -24 -20 -46 -83 -88 -51 -36 -96 -41 -151 -18 -73 30 -122 125 -90 174 30 45 165 84 231 66z m1045 -324 c34 -26 56 -83 78 -202 10 -53 26 -111 35 -128 23 -44 70 -70 130 -71 l50 0 -65 -31 c-115 -53 -305 -119 -420 -146 -59 -14 -324 -55 -527 -82 -193 -25 -223 -21 -286 43 -32 32 -47 60 -64 112 -33 107 -55 221 -48 245 10 31 96 67 180 74 87 8 265 34 324 47 25 6 119 37 210 70 257 93 352 110 403 69z m1988 -37 c0 -23 -65 -153 -94 -188 -22 -26 -20 -17 19 82 24 62 47 118 50 123 9 14 25 3 25 -17z m88 -137 c79 -40 142 -93 370 -310 58 -55 72 -74 70 -94 -3 -23 -17 -13 -183 124 -99 82 -212 175 -252 206 -56 45 -70 62 -66 78 7 25 4 25 61 -4z m-1798 -100 c16 -21 13 -23 -30 -26 -80 -6 -98 8 -84 64 l6 25 47 -24 c26 -13 53 -31 61 -39z m1750 -6 c19 -10 62 -38 95 -62 65 -49 385 -345 385 -356 -4 -47 -49 -226 -58 -225 -21 5 -642 454 -642 465 0 19 51 101 98 156 48 57 51 58 122 22z m-1372 -208 c3 -18 -1 -22 -26 -22 -22 0 -39 11 -66 40 -20 22 -36 42 -36 44 0 2 28 -7 63 -18 48 -17 63 -27 65 -44z m-108 -62 c104 -76 223 -129 325 -144 l40 -6 -39 35 c-21 19 -72 51 -112 72 -40 21 -72 39 -70 40 1 2 106 -9 232 -23 126 -14 259 -25 295 -25 83 1 167 30 219 78 l38 34 88 -11 c171 -21 202 -46 553 -435 l180 -200 -40 -3 c-39 -3 -41 -1 -292 239 -218 209 -404 369 -429 369 -5 0 -8 -47 -8 -105 0 -183 -45 -335 -141 -478 -85 -127 -115 -150 -236 -181 -75 -20 -145 -20 -293 -1 -96 12 -154 12 -352 3 -266 -13 -402 -5 -482 30 -44 20 -45 22 -39 54 18 95 77 163 230 266 109 73 183 144 213 202 20 39 22 55 18 151 -5 125 -12 122 102 39z m-193 34 c10 -28 -10 -98 -31 -102 -30 -6 -39 12 -31 67 6 45 10 51 31 51 14 0 27 -7 31 -16z m-172 -83 c24 -55 68 -94 104 -94 27 0 29 -2 19 -21 -23 -45 -81 -106 -145 -154 -78 -57 -186 -113 -431 -223 l-173 -77 -48 41 c-26 23 -80 68 -119 99 -98 79 -129 137 -124 229 2 23 8 26 80 41 42 8 174 40 292 71 118 30 240 58 271 62 l55 7 48 -104 c44 -96 49 -102 62 -84 25 35 21 82 -12 148 -13 26 -24 54 -24 62 0 22 30 35 81 36 44 0 47 -2 64 -39z m1468 -71 l39 -25 -6 -85 c-9 -141 -61 -270 -155 -386 -27 -33 -64 -72 -84 -87 l-36 -27 36 53 c103 153 154 308 157 474 0 62 3 112 6 110 3 -1 22 -13 43 -27z m557 -538 c0 -2 -14 -31 -32 -64 -65 -122 -141 -174 -433 -295 -144 -60 -149 -60 -216 0 -45 40 -149 161 -149 173 0 5 16 20 36 33 124 85 245 283 304 498 12 43 23 84 26 91 2 8 96 -76 234 -210 126 -122 230 -224 230 -226z m0 364 c105 -80 207 -182 171 -171 -65 20 -94 41 -180 134 -51 56 -89 101 -84 101 4 0 46 -29 93 -64z m-2270 -273 c0 -30 -59 -123 -78 -123 -9 0 -34 3 -54 6 l-37 6 42 50 c59 70 127 103 127 61z"/>
<path d="M3172 1623 c17 -43 43 -116 59 -163 l28 -85 0 96 c1 88 -1 100 -30 152 -28 53 -53 77 -77 77 -6 0 3 -35 20 -77z"/>
</g>
</svg>