<?xml version="1.0" standalone="no"?>
<!DOCTYPE svg PUBLIC "-//W3C//DTD SVG 20010904//EN"
 "http://www.w3.org/TR/2001/REC-SVG-20010904/DTD/svg10.dtd">
<svg version="1.0" xmlns="http://www.w3.org/2000/svg"
 width="672.000000pt" height="876.000000pt" viewBox="0 0 672.000000 876.000000"
 preserveAspectRatio="xMidYMid meet">

<g transform="translate(0.000000,876.000000) scale(0.100000,-0.100000)"
fill="#000000" stroke="none">
<path d="M3559 8510 c-107 -13 -176 -30 -202 -50 -80 -63 -241 -362 -283 -524
-8 -34 -22 -71 -30 -83 l-14 -22 -72 27 c-130 47 -325 33 -575 -42 -192 -58
-301 -120 -439 -249 l-81 -76 -5 -164 c-6 -241 -12 -248 -223 -312 -483 -145
-942 -558 -1181 -1060 -128 -271 -208 -611 -208 -885 0 -148 6 -177 165 -849
134 -565 197 -846 284 -1266 97 -471 123 -564 204 -731 l69 -141 6 -264 c30
-1172 43 -1296 160 -1427 29 -32 67 -80 86 -105 56 -79 68 -59 51 86 -33 281
-42 386 -51 664 -12 322 -1 690 23 808 l12 60 42 3 c23 2 149 -8 280 -22 380
-40 392 -40 399 -22 8 21 -35 87 -78 119 -43 33 -99 51 -299 97 -305 71 -440
145 -509 280 -28 55 -99 335 -160 635 -117 571 -238 1089 -330 1405 -60 210
-95 382 -110 549 -13 139 -9 177 18 166 49 -19 179 -35 290 -36 l126 0 100 51
c56 28 157 80 226 115 69 35 129 60 133 56 15 -15 24 -111 15 -173 -5 -34 -26
-115 -48 -179 -44 -127 -48 -162 -24 -199 73 -109 293 -273 422 -315 51 -17
53 -17 135 8 192 61 286 126 343 239 l27 52 17 -44 c26 -65 93 -120 237 -192
126 -63 127 -63 225 -66 275 -10 506 111 574 300 9 24 19 85 24 136 5 52 11
96 14 100 3 3 37 -15 74 -41 95 -65 136 -80 197 -74 129 13 382 128 511 232
l81 65 6 182 c6 194 23 301 72 448 30 89 54 124 78 114 24 -9 21 -35 -12 -109
-34 -74 -54 -162 -75 -320 -27 -200 -38 -388 -34 -545 5 -180 25 -253 93 -355
66 -98 178 -152 224 -106 31 31 26 71 -13 127 -88 124 -105 184 -113 394 -8
235 20 453 86 650 48 141 152 336 216 406 33 36 22 48 -71 73 -198 55 -453
199 -660 372 -175 146 -393 388 -443 493 -69 142 -65 377 10 517 79 147 254
235 390 196 59 -18 81 -38 323 -301 55 -59 131 -135 170 -169 39 -33 72 -64
74 -68 2 -5 -17 -35 -42 -68 -68 -89 -135 -108 -259 -76 -82 21 -190 75 -312
155 -136 90 -212 133 -226 128 -28 -9 205 -246 366 -373 127 -99 151 -109 285
-113 l115 -3 56 158 56 158 243 17 244 18 101 -98 c128 -125 175 -159 342
-243 74 -38 157 -85 184 -105 68 -50 104 -126 124 -267 43 -299 135 -603 305
-1012 138 -332 169 -445 156 -571 -25 -241 -283 -616 -927 -1348 -101 -115
-240 -273 -308 -350 -204 -232 -249 -295 -415 -574 -360 -607 -491 -844 -525
-952 -55 -173 -97 -477 -122 -873 -17 -283 -9 -348 42 -329 38 15 109 72 123
101 9 17 25 105 37 208 73 635 252 1125 628 1718 141 223 313 444 831 1065
734 881 809 988 840 1208 19 137 -21 348 -131 690 -83 254 -202 664 -265 910
-51 199 -53 152 21 532 60 309 75 414 81 565 10 224 -28 331 -154 430 -170
134 -412 209 -759 235 -252 19 -329 28 -365 43 -30 13 -36 21 -42 57 -5 35
-18 54 -69 104 -77 76 -157 118 -278 150 -233 62 -706 94 -950 66z m448 -235
c182 -24 482 -74 537 -90 74 -22 86 -37 86 -109 0 -110 -49 -475 -71 -534 l-9
-23 -28 19 c-15 11 -65 54 -112 97 -189 170 -359 281 -467 305 -142 32 -372
-79 -493 -238 -28 -37 -75 -115 -103 -174 -29 -59 -57 -108 -63 -108 -18 0
-24 36 -24 145 0 112 19 234 55 360 63 216 148 322 282 354 61 15 283 12 410
-4z m1373 -429 c280 -65 403 -117 498 -209 54 -52 68 -78 76 -142 16 -123 -58
-536 -99 -551 -20 -8 -167 31 -232 61 -64 29 -92 50 -278 213 -78 69 -164 135
-195 150 -53 26 -61 27 -195 24 -174 -3 -178 -2 -169 46 17 104 76 398 80 401
2 3 48 15 102 28 127 30 210 26 412 -21z m-2503 -226 c55 -20 87 -82 141 -275
69 -247 99 -498 83 -695 -11 -131 -19 -176 -57 -321 -25 -96 -26 -114 -21
-249 4 -121 41 -463 63 -589 l6 -35 -41 37 c-23 21 -55 39 -77 43 -53 10 -325
-3 -407 -20 -49 -9 -71 -10 -81 -2 -14 11 -94 261 -120 376 -22 100 -44 229
-66 405 -25 193 -45 283 -110 480 -64 196 -84 304 -77 420 13 241 142 370 420
420 88 16 303 19 344 5z m518 -817 c172 -230 426 -489 633 -645 84 -63 92 -72
92 -103 0 -59 -62 -233 -89 -249 -5 -4 -36 1 -68 9 -152 40 -309 38 -393 -5
-59 -30 -223 -212 -236 -262 -10 -41 -10 -40 -32 73 -33 172 -53 338 -59 499
-6 154 -1 194 52 430 14 63 28 163 32 223 3 59 7 107 8 107 2 0 29 -35 60 -77z
m-1554 56 c127 -43 180 -179 214 -549 29 -329 51 -446 120 -649 54 -161 46
-192 -44 -157 -60 24 -207 21 -307 -4 -101 -26 -167 -62 -237 -131 -34 -32
-62 -59 -62 -59 -1 0 -7 17 -13 38 -15 49 -80 146 -191 285 -115 145 -135 189
-156 342 -21 160 -33 181 -120 227 -38 21 -73 38 -77 38 -5 0 -8 -126 -8 -280
l0 -280 43 -21 c74 -37 201 -126 246 -172 l43 -45 -51 -7 c-42 -6 -71 -22
-182 -101 l-131 -94 -117 0 c-64 0 -134 5 -156 11 -71 19 -133 50 -138 68 -2
10 0 67 5 127 12 142 44 239 153 452 114 225 166 301 308 449 150 155 278 263
391 328 47 28 123 72 168 99 143 85 168 96 218 96 26 0 62 -5 81 -11z m2082
-1217 l67 -31 0 -108 c0 -235 -64 -339 -241 -394 -34 -11 -83 -19 -110 -19
-49 0 -115 25 -136 52 -12 16 -27 171 -28 288 0 115 16 143 115 192 134 67
219 73 333 20z m-1036 -286 c125 -58 152 -88 183 -211 11 -42 29 -94 41 -115
19 -33 21 -49 16 -104 -8 -79 -26 -125 -78 -192 -59 -77 -96 -89 -257 -81
-164 8 -209 23 -284 97 -55 53 -58 59 -58 104 0 67 36 235 67 313 36 90 101
175 154 202 57 29 134 24 216 -13z m-764 -53 c107 -19 121 -30 114 -93 -12
-98 -141 -366 -219 -455 -72 -82 -183 -101 -294 -51 -70 32 -116 74 -139 129
-14 34 -26 130 -38 319 l-5 68 42 10 c22 6 91 28 151 50 61 21 121 41 135 44
37 6 153 -3 253 -21z"/>
<path d="M5520 6639 c-34 -9 -57 -24 -102 -72 -129 -133 -303 -447 -249 -447
5 0 54 40 108 90 248 227 292 265 358 309 75 50 108 92 88 112 -16 16 -147 21
-203 8z"/>
<path d="M2693 4158 c-38 -61 -81 -159 -101 -231 -13 -48 -17 -104 -17 -247 0
-187 9 -263 47 -415 109 -438 510 -996 824 -1145 75 -36 211 -70 282 -70 116
0 275 60 324 123 38 48 13 114 -69 186 l-45 40 -67 -34 c-145 -72 -238 -81
-343 -31 -181 86 -488 463 -612 753 -108 254 -143 429 -156 805 -12 333 -16
346 -67 266z"/>
</g>
</svg>
