<svg xmlns="http://www.w3.org/2000/svg" version="1.0" preserveAspectRatio="xMidYMid meet" viewBox="6.77 5.93 174.43 256.93">

<g transform="translate(0.000000,270.000000) scale(0.100000,-0.100000)" fill="#000000" stroke="none">
<path d="M1120 2636 c-4 -3 -51 -12 -105 -21 -156 -24 -178 -35 -234 -118 -122 -182 -138 -241 -80 -299 l30 -31 102 6 c56 3 123 13 148 21 l47 14 25 -46 c30 -56 47 -115 38 -130 -4 -6 -105 -40 -226 -76 -121 -36 -247 -77 -280 -92 -33 -14 -99 -41 -146 -59 -155 -60 -198 -87 -280 -177 -42 -45 -81 -93 -87 -104 -10 -18 -4 -48 32 -168 66 -220 79 -237 284 -369 68 -45 106 -76 114 -94 73 -182 162 -315 257 -388 30 -23 58 -52 63 -66 5 -13 20 -93 33 -178 29 -184 32 -193 53 -189 13 3 16 13 14 45 -4 48 -67 371 -73 376 -2 2 -29 22 -59 44 -49 36 -64 57 -137 189 -99 179 -101 184 -77 184 10 0 46 -29 80 -65 56 -58 67 -65 101 -65 61 0 75 -17 84 -98 4 -39 14 -81 21 -94 13 -23 13 -23 16 10 l3 34 35 -59 c37 -62 76 -103 100 -103 9 0 3 16 -21 49 -37 51 -76 133 -93 193 -10 35 -9 38 25 64 19 14 48 49 65 76 l31 50 23 -29 c12 -15 25 -25 29 -21 4 4 22 -3 39 -16 50 -37 60 -42 53 -23 -6 15 2 17 56 17 l62 1 -38 13 c-88 32 -199 121 -233 188 -14 28 -45 82 -70 121 -57 92 -58 122 -5 191 56 75 60 85 15 47 -38 -34 -39 -34 -42 -13 -4 26 40 107 63 116 38 14 114 -16 230 -94 39 -25 97 -61 130 -79 59 -33 159 -126 243 -226 40 -48 42 -49 42 -23 0 49 -23 79 -97 129 -40 27 -73 51 -73 54 0 2 25 -7 55 -20 30 -14 55 -23 55 -20 0 3 -75 55 -167 116 l-166 111 24 20 c13 11 87 50 164 87 77 37 156 75 175 84 l35 17 -35 -6 c-67 -11 -136 -37 -263 -101 -135 -67 -179 -76 -185 -38 -1 12 14 40 38 69 22 27 38 51 35 54 -2 3 -32 -16 -66 -43 -69 -54 -92 -61 -97 -27 -3 23 39 245 59 310 11 33 26 42 34 20 3 -8 26 -14 56 -15 l50 -2 -30 29 c-16 17 -37 53 -46 80 -9 28 -32 88 -50 133 -18 45 -31 85 -28 89 2 5 21 8 41 8 51 1 112 30 167 81 42 39 73 79 61 79 -3 0 -26 -19 -53 -41 -26 -23 -61 -48 -78 -55 -44 -18 -116 -27 -142 -17 -22 8 -22 10 27 83 28 41 50 79 50 83 0 5 -27 -26 -60 -67 -72 -90 -86 -101 -170 -120 -78 -19 -139 -20 -191 -4 -63 18 -52 42 31 67 69 21 100 47 100 82 0 20 -31 49 -53 49 -25 0 -21 11 22 72 l40 55 134 12 c134 13 211 7 272 -21 12 -5 51 -53 87 -106 61 -91 68 -107 102 -237 22 -82 57 -184 86 -245 76 -166 164 -452 184 -605 8 -53 -33 -319 -94 -619 -17 -86 -26 -152 -21 -155 5 -4 33 -69 61 -146 60 -159 66 -171 87 -153 20 16 11 63 -43 228 l-44 136 16 89 c8 50 31 171 50 270 25 124 37 220 41 310 l5 130 -50 145 c-185 539 -341 918 -400 972 -43 41 -222 95 -242 74z m-286 -242 c33 -32 11 -62 -54 -74 -22 -4 -43 -3 -46 1 -7 11 32 76 49 83 22 9 35 6 51 -10z m253 -487 c-7 -75 -45 -221 -77 -294 -35 -79 -77 -77 -115 7 -23 51 -38 52 -28 3 4 -21 8 -96 8 -168 0 -122 -2 -133 -27 -182 -32 -61 -33 -63 -13 -63 29 0 82 -61 116 -132 41 -90 43 -148 4 -214 -14 -24 -27 -44 -29 -44 -2 0 -20 27 -40 60 -55 89 -81 101 -162 75 -18 -6 -29 3 -63 47 l-40 53 40 12 c42 13 69 29 69 43 0 4 -33 5 -74 2 l-74 -5 -22 42 c-19 38 -22 68 -30 259 -10 260 -5 380 19 386 63 17 111 15 199 -10 16 -5 22 -2 22 10 0 10 -17 24 -42 35 l-42 18 74 26 c137 50 305 105 319 106 11 1 13 -13 8 -72z m-614 -229 c4 -46 7 -121 7 -168 0 -101 16 -283 31 -358 6 -30 9 -56 6 -59 -3 -2 -27 -1 -54 3 -72 11 -104 48 -141 166 -61 190 -90 391 -59 416 19 16 169 80 188 81 13 1 17 -15 22 -81z m-264 -130 c6 -18 24 -86 41 -151 24 -96 60 -201 97 -284 11 -27 -48 -13 -82 20 -27 25 -50 69 -100 195 -72 177 -71 164 -16 225 32 35 47 34 60 -5z m218 -513 l28 -26 -42 21 c-45 21 -53 30 -29 30 8 0 28 -11 43 -25z m172 -20 c70 -76 54 -83 -45 -20 -46 30 -54 38 -44 50 21 25 46 17 89 -30z m175 -86 c-7 -11 -34 -12 -34 -1 0 14 11 21 26 15 8 -3 11 -9 8 -14z m96 -49 c18 -26 20 -33 9 -46 -24 -29 -119 4 -119 41 0 7 10 17 23 23 39 19 64 14 87 -18z m-161 -4 c35 -37 21 -53 -17 -21 -18 15 -32 31 -32 36 0 17 27 9 49 -15z"/>
<path d="M1490 953 c-76 -95 -75 -93 -55 -93 23 0 82 66 96 107 6 19 9 36 7 38 -2 2 -24 -21 -48 -52z"/>
</g>
</svg>